<mxfile host="app.diagrams.net" modified="2022-03-09T16:38:16.644Z" agent="5.0 (Windows NT 10.0; Win64; x64) AppleWebKit/537.36 (KHTML, like Gecko) Chrome/98.0.4758.102 Safari/537.36" etag="YwnL0rY1AYGfNXLyMPHA" version="16.5.3" type="github">
  <diagram id="C5RBs43oDa-KdzZeNtuy" name="Page-1">
    <mxGraphModel dx="782" dy="379" grid="1" gridSize="10" guides="1" tooltips="1" connect="1" arrows="1" fold="1" page="1" pageScale="1" pageWidth="827" pageHeight="1169" math="0" shadow="0">
      <root>
        <mxCell id="WIyWlLk6GJQsqaUBKTNV-0" />
        <mxCell id="WIyWlLk6GJQsqaUBKTNV-1" parent="WIyWlLk6GJQsqaUBKTNV-0" />
        <mxCell id="WIyWlLk6GJQsqaUBKTNV-2" value="" style="rounded=0;html=1;jettySize=auto;orthogonalLoop=1;fontSize=11;endArrow=block;endFill=0;endSize=8;strokeWidth=1;shadow=0;labelBackgroundColor=none;edgeStyle=orthogonalEdgeStyle;" parent="WIyWlLk6GJQsqaUBKTNV-1" source="WIyWlLk6GJQsqaUBKTNV-3" target="WIyWlLk6GJQsqaUBKTNV-6" edge="1">
          <mxGeometry relative="1" as="geometry" />
        </mxCell>
        <mxCell id="SsM3ilcu9KNld8kwQiKV-3" value="" style="edgeStyle=orthogonalEdgeStyle;rounded=0;orthogonalLoop=1;jettySize=auto;html=1;" edge="1" parent="WIyWlLk6GJQsqaUBKTNV-1" source="WIyWlLk6GJQsqaUBKTNV-3" target="WIyWlLk6GJQsqaUBKTNV-6">
          <mxGeometry relative="1" as="geometry" />
        </mxCell>
        <mxCell id="WIyWlLk6GJQsqaUBKTNV-3" value="GET_COP_SNAPSHOT_DATA_V2" style="rounded=1;whiteSpace=wrap;html=1;fontSize=12;glass=0;strokeWidth=1;shadow=0;" parent="WIyWlLk6GJQsqaUBKTNV-1" vertex="1">
          <mxGeometry x="110" y="120" width="220" height="40" as="geometry" />
        </mxCell>
        <mxCell id="WIyWlLk6GJQsqaUBKTNV-4" value="Yes" style="rounded=0;html=1;jettySize=auto;orthogonalLoop=1;fontSize=11;endArrow=block;endFill=0;endSize=8;strokeWidth=1;shadow=0;labelBackgroundColor=none;edgeStyle=orthogonalEdgeStyle;entryX=0.5;entryY=0;entryDx=0;entryDy=0;" parent="WIyWlLk6GJQsqaUBKTNV-1" source="WIyWlLk6GJQsqaUBKTNV-6" target="WIyWlLk6GJQsqaUBKTNV-11" edge="1">
          <mxGeometry y="20" relative="1" as="geometry">
            <mxPoint as="offset" />
            <mxPoint x="220" y="310" as="targetPoint" />
          </mxGeometry>
        </mxCell>
        <mxCell id="WIyWlLk6GJQsqaUBKTNV-5" value="No" style="edgeStyle=orthogonalEdgeStyle;rounded=0;html=1;jettySize=auto;orthogonalLoop=1;fontSize=11;endArrow=block;endFill=0;endSize=8;strokeWidth=1;shadow=0;labelBackgroundColor=none;entryX=0.5;entryY=0;entryDx=0;entryDy=0;entryPerimeter=0;" parent="WIyWlLk6GJQsqaUBKTNV-1" source="WIyWlLk6GJQsqaUBKTNV-6" target="SsM3ilcu9KNld8kwQiKV-16" edge="1">
          <mxGeometry y="10" relative="1" as="geometry">
            <mxPoint as="offset" />
            <mxPoint x="380" y="230" as="targetPoint" />
          </mxGeometry>
        </mxCell>
        <mxCell id="WIyWlLk6GJQsqaUBKTNV-6" value="MV_COP_SNAPSHOTS" style="rhombus;whiteSpace=wrap;html=1;shadow=0;fontFamily=Helvetica;fontSize=12;align=center;strokeWidth=1;spacing=6;spacingTop=-4;" parent="WIyWlLk6GJQsqaUBKTNV-1" vertex="1">
          <mxGeometry x="140" y="190" width="160" height="80" as="geometry" />
        </mxCell>
        <mxCell id="SsM3ilcu9KNld8kwQiKV-18" style="edgeStyle=orthogonalEdgeStyle;rounded=0;orthogonalLoop=1;jettySize=auto;html=1;entryX=0;entryY=0.5;entryDx=0;entryDy=0;entryPerimeter=0;fontSize=11;" edge="1" parent="WIyWlLk6GJQsqaUBKTNV-1" source="WIyWlLk6GJQsqaUBKTNV-11" target="SsM3ilcu9KNld8kwQiKV-16">
          <mxGeometry relative="1" as="geometry">
            <Array as="points">
              <mxPoint x="220" y="435" />
            </Array>
          </mxGeometry>
        </mxCell>
        <mxCell id="WIyWlLk6GJQsqaUBKTNV-11" value="Generate frames" style="rounded=1;whiteSpace=wrap;html=1;fontSize=12;glass=0;strokeWidth=1;shadow=0;" parent="WIyWlLk6GJQsqaUBKTNV-1" vertex="1">
          <mxGeometry x="160" y="340" width="120" height="40" as="geometry" />
        </mxCell>
        <mxCell id="SsM3ilcu9KNld8kwQiKV-9" style="edgeStyle=orthogonalEdgeStyle;rounded=0;orthogonalLoop=1;jettySize=auto;html=1;entryX=0.5;entryY=0;entryDx=0;entryDy=0;" edge="1" parent="WIyWlLk6GJQsqaUBKTNV-1" target="WIyWlLk6GJQsqaUBKTNV-3">
          <mxGeometry relative="1" as="geometry">
            <mxPoint x="220" y="90" as="targetPoint" />
            <mxPoint x="220" y="100" as="sourcePoint" />
          </mxGeometry>
        </mxCell>
        <mxCell id="SsM3ilcu9KNld8kwQiKV-0" value="ETV User" style="shape=umlActor;verticalLabelPosition=bottom;verticalAlign=top;html=1;outlineConnect=0;" vertex="1" parent="WIyWlLk6GJQsqaUBKTNV-1">
          <mxGeometry x="205" y="10" width="30" height="60" as="geometry" />
        </mxCell>
        <mxCell id="SsM3ilcu9KNld8kwQiKV-5" value="Filters by:&#xa;-Pagination&#xa;-Mission&#xa;-Security Class" style="text;strokeColor=none;fillColor=none;align=left;verticalAlign=middle;spacingLeft=4;spacingRight=4;overflow=hidden;points=[[0,0.5],[1,0.5]];portConstraint=eastwest;rotatable=0;" vertex="1" parent="WIyWlLk6GJQsqaUBKTNV-1">
          <mxGeometry x="43.75" y="295" width="92.5" height="60" as="geometry" />
        </mxCell>
        <mxCell id="SsM3ilcu9KNld8kwQiKV-10" value="" style="line;strokeWidth=2;html=1;" vertex="1" parent="WIyWlLk6GJQsqaUBKTNV-1">
          <mxGeometry x="40" y="355" width="90" height="10" as="geometry" />
        </mxCell>
        <mxCell id="SsM3ilcu9KNld8kwQiKV-11" value="Generate list of&amp;nbsp; frames" style="text;html=1;strokeColor=none;fillColor=none;align=center;verticalAlign=middle;whiteSpace=wrap;rounded=0;" vertex="1" parent="WIyWlLk6GJQsqaUBKTNV-1">
          <mxGeometry x="32.5" y="367.5" width="115" height="30" as="geometry" />
        </mxCell>
        <mxCell id="SsM3ilcu9KNld8kwQiKV-12" value="" style="strokeWidth=2;html=1;shape=mxgraph.flowchart.annotation_2;align=left;labelPosition=right;pointerEvents=1;" vertex="1" parent="WIyWlLk6GJQsqaUBKTNV-1">
          <mxGeometry x="120" y="322.5" width="30" height="75" as="geometry" />
        </mxCell>
        <mxCell id="SsM3ilcu9KNld8kwQiKV-13" value="" style="strokeWidth=2;html=1;shape=mxgraph.flowchart.annotation_2;align=left;labelPosition=right;pointerEvents=1;" vertex="1" parent="WIyWlLk6GJQsqaUBKTNV-1">
          <mxGeometry x="117.5" y="190" width="30" height="80" as="geometry" />
        </mxCell>
        <mxCell id="SsM3ilcu9KNld8kwQiKV-15" value="Information is grouped by run_date, &lt;br&gt;mission and security classification" style="text;html=1;strokeColor=none;fillColor=none;align=center;verticalAlign=middle;whiteSpace=wrap;rounded=0;fontSize=11;" vertex="1" parent="WIyWlLk6GJQsqaUBKTNV-1">
          <mxGeometry x="30" y="195" width="100" height="70" as="geometry" />
        </mxCell>
        <mxCell id="SsM3ilcu9KNld8kwQiKV-16" value="" style="strokeWidth=2;html=1;shape=mxgraph.flowchart.terminator;whiteSpace=wrap;fontSize=11;" vertex="1" parent="WIyWlLk6GJQsqaUBKTNV-1">
          <mxGeometry x="360" y="420" width="60" height="30" as="geometry" />
        </mxCell>
        <mxCell id="SsM3ilcu9KNld8kwQiKV-22" value="" style="endArrow=none;html=1;rounded=0;fontSize=11;" edge="1" parent="WIyWlLk6GJQsqaUBKTNV-1">
          <mxGeometry width="50" height="50" relative="1" as="geometry">
            <mxPoint x="310" y="220" as="sourcePoint" />
            <mxPoint x="390" y="160" as="targetPoint" />
          </mxGeometry>
        </mxCell>
        <mxCell id="SsM3ilcu9KNld8kwQiKV-23" value="Refreshing data?&amp;nbsp;&amp;nbsp;" style="text;html=1;strokeColor=none;fillColor=none;align=center;verticalAlign=middle;whiteSpace=wrap;rounded=0;fontSize=11;" vertex="1" parent="WIyWlLk6GJQsqaUBKTNV-1">
          <mxGeometry x="390" y="140" width="90" height="40" as="geometry" />
        </mxCell>
        <mxCell id="SsM3ilcu9KNld8kwQiKV-27" value="Yes" style="rounded=0;html=1;jettySize=auto;orthogonalLoop=1;fontSize=11;endArrow=block;endFill=0;endSize=8;strokeWidth=1;shadow=0;labelBackgroundColor=none;edgeStyle=orthogonalEdgeStyle;" edge="1" parent="WIyWlLk6GJQsqaUBKTNV-1">
          <mxGeometry x="-0.1429" y="10" relative="1" as="geometry">
            <mxPoint as="offset" />
            <mxPoint x="470" y="160" as="sourcePoint" />
            <mxPoint x="540" y="160" as="targetPoint" />
            <Array as="points">
              <mxPoint x="520" y="160" />
              <mxPoint x="520" y="160" />
            </Array>
          </mxGeometry>
        </mxCell>
        <mxCell id="SsM3ilcu9KNld8kwQiKV-28" value="&lt;span style=&quot;color: rgb(35 , 38 , 41) ; text-align: left ; background-color: rgb(255 , 255 , 255)&quot;&gt;&lt;font style=&quot;font-size: 11px&quot;&gt;Old data until the refresh completes&lt;/font&gt;&lt;/span&gt;" style="text;html=1;strokeColor=none;fillColor=none;align=center;verticalAlign=middle;whiteSpace=wrap;rounded=0;fontSize=11;" vertex="1" parent="WIyWlLk6GJQsqaUBKTNV-1">
          <mxGeometry x="560" y="145" width="60" height="30" as="geometry" />
        </mxCell>
        <mxCell id="SsM3ilcu9KNld8kwQiKV-29" value="" style="shape=image;verticalLabelPosition=bottom;labelBackgroundColor=default;verticalAlign=top;aspect=fixed;imageAspect=0;image=data:image/png,iVBORw0KGgoAAAANSUhEUgAAAgAAAAIACAYAAAD0eNT6AAAABHNCSVQICAgIfAhkiAAAAAlwSFlzAAAN1wAADdcBQiibeAAAABl0RVh0U29mdHdhcmUAd3d3Lmlua3NjYXBlLm9yZ5vuPBoAACAASURBVHic7d17/G7lnP/x16e9OxelRKUhORUqKhQmGRI6/RxyTimmxiHNGInih8oohB9yGDmMw0SGkCSZTMqhHTqipihKJUQntWt/fn+sFbvah+/3u651r/u+r9fz8bgfO/mu6/rca632en+vtdZ1RWai4UXElsALga2BrYB7DFuRJE2dhcB5wALgm5n55YHrGVQYAIYVESsChwBvBOYPXI4k1eSrwD9m5lVDFzIEA8CAIiKAbwI7Dl2LJFXqGmCLGkPACkMXULn98eIvSUNaD/jo0EUMwRGAgUTE+sDFwOpD1yJJYo/M/OLQRYySIwDD+Xu8+EvSuHjG0AWMmgFgOFsPXYAk6a+q+zvZADCczYcuQJL0V5tGRFVvYhkAhrPy0AVIkv5qHpW9im0AkCSpQgYASZIqZACQJKlCBgBJkipkAJAkqUIGAEmSKlTVKw9TZIfMPG3oIiRp3ETEX/A16xlxBECSpAoZACRJqpABQJKkChkAJEmqkAFAkqQKGQAkSaqQAUCSpAoZACRJqpABQJKkChkAJEmqkAFAkqQKGQAkSaqQAUCSpAoZACRJqpABQJKkChkAJEmqkAFAkqQKGQAkSapQZObQNQwqIu4NPAHYGngksNKIut4GuNcct/0R8MeCtSzP9cCPgQXAmZl5Y18dRcRGwHY0x2NTYH5ffUkamT8BZ/O3v0P+0ldHEfEXYOU5br5qn7WNm2oDQEQEsB9wJLDGwOVMksuBfTLz2yUbjYgVgUOAg4EVS7YtaaxcDOydmWf00bgBYOaqDADtxebrwI5D1zLB/i0zDy7RUESsC5wKbF6iPUljbxFwSGa+o3TDBoCZq/UZgLfgxb+rN0TEzoXa+iBe/KWarAAcFhF/P3QhNatuBCAitgG+D8wbupYpcBXw8Mz8w1wbiIhnA8eXK0nSBPkl8MiSzxU5AjBzNY4AvBgv/qXcF3haxzb2LFGIpIm0MeAowEBqDABbD13AlOm6Pz0eUt38O2AgVQWAiFgB2HLoOqbMo+a6YUSsB2xQsBZJk2eroQuoVVUBgOYd/9WGLmLKXNth2z8BC0sVImkirTV0AbWqLQCovAVz3TAzbwHOL1iLJGmGDADqqutkHmcWqULSpKrrVbQxYgBQF8cXmM3rMGDOrxFKmngxdAG1MgBorq4B9u/aSGZeBRzQvRxJ0mwYADQXPwGekpldHgD8q8z8DM26DNeXaE+StHwGAM3UIuBC4FDgsZl5XsnGM/MjwCOA42hmGJRUB58BGIhLrc7cQmDXoYsYyPXAOZl5Q5+dZOblwPMBImJDXA5YmhSbA++c47Y+AzAQ/3KduUWZ+c2hi6hFZl4BXDF0HZKWr51/XxPGWwCSJFXIACBJUoUMAJIkVcgAIElShQwAkiRVyAAgSVKFDACSJFXIACBJUoUMAJIkVcgAIElShQwAkiRVyAAgSVKFDACSJFXIACBJUoUMAJIkVcgAIElShQwAkiRVyAAgSVKFDACSJFXIACBJUoUMAJIkVcgAIElShQwAkiRVyAAgSVKFDACSJFXIACBJUoUMAJIkVcgAIElShQwAkiRVyAAgSVKFDACSJFXIACBJUoUMAJIkVcgAIElSheYPXYDKi4jVgC2B9YauRWPvCuDczLxliM4jIoCHtJ95Q9QwphK4BPhZZt4+dDGaTgaAKRIR/wi8CtgU/zLVzC2MiHOBd2Tml0bRYUQ8EjgK2A5YcxR9TqibImIB8IbM/P7QxWi6eAtgCkTE/SLiW8CHgUfgxV+zsyKwFXB8RBwXEev01VFErBARbwIWAE/Di//yrAb8PfC9iDgqIlYauiBND0cAJlxEzAdOAB49dC2aCnsAa9FcnPtwAHBYT21PsxWA1wHR/il15gjA5DsIL/4qa8eI2Kd0oxHxYODw0u1W5sCIePzQRWg6GAAmWESsCbx56Do0lY5sH9Ar6a3AqoXbrM0KwJFDF6HpYACYbI8GvCeoPtyL5sn8krYt3F6tHt3e+pM6MQBMtm2GLkBTrdj5FRHrAg8o1V7lVqF500fqxAAw2dYeugBNtZLn1yYF2xI8cOgCNPkMAJPtx0MXoKlW8vwq/TxB7dyf6swAMNkWDF2AptbtwE+GLkJSfwwAEywzLwNOGboOTaXPZeZNQxchqT8GgMm3L3D90EVoqlwFvHboIiT1ywAw4TLzcuDlwM1D16KpcB2wZ2b+YehCJPXLADAFMvM4YAvgjKFr0UT7OvDwzPS2klQBJ5OYEpl5cUT8PfAoYGuaxV1cDljLcwXNw6RnZeb5QxezFH8E/mfoInrwWOC+QxehehkApkhmLgLObj/StLgoM3cfuojSIuIrwG5D16F6eQtAkqQKGQAkSaqQAUCSpAoZACRJqpABQJKkChkAJEmqkAFAkqQKGQAkSaqQAUCSpAoZACRJqpABQJKkChkAJEmqkAFAkqQKGQAkSaqQAUCSpAoZACRJqpABQJKkChkAJEmqkAFAkqQKGQAkSaqQAUCSpAoZACRJqpABQJKkChkAJEmqkAFAkqQKGQAkSaqQAUCSpAoZACRJqpABQJKkChkAJEmqkAFAkqQKGQAkSaqQAUCSpAoZACRJqpABQJKkCs0fuoDZiogHAk8FNgI2WOyzLv0GmpUj4qoe29ey3QRcDCwAPpKZlw9cjyRNtIkIABGxFbA7sBvwyAFLuc+AfQs2BnYEDoqIDwCvy8zbBq5JkibSWAeAiNgJOJJhL/oaP/OAA4DNIuKZmblw6IIkadKM5TMAEfGoiDgFOAkv/lq6pwJvHroISZpEYxUAImKliPgQcDbwlKHr0UQ4OCI2G7oISZo0YxMAImI94FRgfyAGLkeTYx5w6NBFSNKkGYsAEBFbAmcBTxi6Fk2kPRwFkKTZGTwARMQTgTOAvxu6Fk2sFXAUQJJmZdAAEBEPAP4LWG3IOjQVHAWQpFkYLABExJrA12gm8JG6chRAkmZhkAAQESsAnwUeMUT/mlp7RMSmQxchSZNgqBGAlwK7DNS3ptcKOC+AJM3IyANARKwCvHXU/aoajgJI0gwMMQLwKpqFfKQ+OAogSTMw0gAQEWsBB4+yT1XJUQBJWo5RLwb0MuBehdq6FvgezQRCZwEXArcXalvDWh/4IbDiHLe/YxTgBcUqkqQpM+oAsHuhdj4O/HNm/rlQexovV0XEp4F9OrSxR0S8LTN/VqooSZomIwsAEXFv4PEdm7kS2DczTypQksbb4cCeOAqgZtnn04Yuoge+Bq1BjXIEYBe6PXNwK7BTZp5XqB6Nscz8paMAaq0JbD90EdK0GeVDgLt23P6tXvyrczhwW4ftfSNAkpZilAGgyzztZwHvLFWIJkNm/hL4VMdmfCNAkpZglAFggw7bfiAzfcK/TiVGAVwjQJLuYiQBICLuAazeoYmzS9WiyVJoFOB5jgJI0p2NagRg/Q7b3gj8vFQhmkiOAkhSYZMQAM51+L9ujgJMhUVDFzBl3J/qbFQBYJUO2zrZj8BRgEl38dAFTJn/HboATb6hlgOWZsVRgMmWmX8ELhm6jilxE/CLoYvQ5DMAaJI4CjDZzhi6gClxlrdFVYIBQBPDUYCJdwje0utqIXDg0EVoOhgANGkcBZhQmflr4J+HrmPCvT0zfzJ0EZoOBgBNlIKjAA8rUY9mJzM/DrwCuGHoWibMLcDraQKwVIQBQJPINQImWGZ+DNgcOA74zcDljLurga8CW2fmUZnp638qZpSrAUpFLLZS4Ms6NPO8dqVAJ5kaQDuS83yAiLgP8BBg3qBFjZcELslMA5J6YwDQpDoM2JO5n8N3jAK8sFhFmpPMvJrmN11JI+QtAE2k9jfIT3dsxmcBJFXLAKBJdhg+CyBJc2IA0MRyFECS5s4AoEnnvACSNAcGAE20zLyU7qMAz3cUQFJtDACaBo4CSNIsGQA08RwFkKTZMwBoWjgKIEmzYADQVHAUQJJmxwCgaeIogCTNkAFAU8NRAEmaOQOApo2jAJI0AwYATRVHASRpZgwAmkaOAkjSchgANHXaUYD/6NiMowCSppoBQNOqxEqBjgJImloGAE2lgqMADy1RjySNGwOAplmJUYA3F6pFksaKAUBTy1EASVo6A4Cmnc8CSNISGAA01QqNArzAUQBJ08YAoBo4CiBJd2EA0NRzFECS7s4AoFo4CiBJizEAqAqOAkjSnRkAVBPXCJCklgFA1cjMS3AUQJIAA4Dq4yiAJGEAUGUcBZCkhgFANXIUQFL1DACqTjsK8JmOzbhGgKSJZgBQrbrOCzAPRwEkTTADgKrkKICk2hkAVDNHASRVa/7QBUhDycxLIuIzwF4dmnl+RJwG3FCkKGkybdZh2/Ui4vnFKun2i+1zI2Lhcn5mEXAtcCVwZWb+uUN/g4rM7L+TiJ2Ak+a4+cmZuVPJeqQ7RMQmwM8xDEuamxuBXwOnAF8B/iczu4wsjoy3AFS1Qs8CSKrX6sDDgFcDpwLXRMR/RMSThy1r+QwAUvdnASTpDmsDLwZOjYhvRsTmQxe0NAYAVc9RAEk9eRrwk4j4RERsOHQxd2UAkBqOAkjqwwo0Dxr/NCK2H7iWOzEASDgKIKl36wKnRMR+QxdyBwOA9DeOAkjq04rAMRHxoYgY/M0jA4DUchRA0ojsD7x36CIMANKdOQogaRReOfTtAAOAtBhHASSN0P+LiB2G6twAIN3d24Gbhy5C0tSbDxw/1CuCBgDpLjLzUuDgoeuQVIV7AW8bomMDgLRk7wc+MHQRkqrw0ojosqDSnBgApCXIxquBlwG/GboeSVNtHnDEqDsd/D1EaZxl5ifaJYN3BTYHHgCsPGhRkoY0j2bxn03bfy5lt4h4XGb+oGCby2QAkJYjMxcCX2o/kkRErAZsATwdeD1lfjHYExhZAPAWgCRJs5SZN2Xm9zPzzcBWwNkFmt01IqJAOzNiAJAkqYPMvAB4HPDBjk1tCGzdvaKZMQBIktRRZt4GHAic07Gp3QqUMyMGAEmSCmifF3opsLBDM08pVM5yGQAkSSokM8+h20I/G5WqZXkMAJIklfXtDtveJyJKvl64VAYASZLK6vJGwDxgvVKFLIsBQJKkgjLz98BlHZrYoFQty2IAkCSpvIs6bLtOsSqWwQAgSVJ5izpsO5JrswFAkqQKGQAkSaqQAUCSpAoZACRJqpABQJKkChkAJEmqkAFAkqQKGQAkSaqQAUCSpAoZACRJqpABQJKkChkAJEmqkAFAkqQKGQAkSaqQAUCSpAoZACRJqpABQJKkChkAJEmqkAFAkqQKGQAkSaqQAUCSpAoZACRJqpABQJKkChkAJEmqkAFAkqQKGQAkSaqQAUCSpAoZACRJqpABQJKkChkAJEmqkAFAkqQKGQAkSaqQAUCSpAoZACRJqpABQJKkChkAJEmqkAFAkqQKGQAkSaqQAUCSpAoZACRJqpABQJKkChkAJEmq0PyhC5BUTkSsBGwE3L/93A9YA1gNWLX9c/F/BrgJuLn9c/F/vgH4DXBZ+/l1Zt46qu8iqV8GAGkCRcS9ga2ArYHNaC72DwDuS38je4si4irgVzSB4EJgAXB2Zv6upz4l9cQAII25iFgLeAzNxX5rmgv/3w1QygrABu1nu8X/j4i4HDibJhAsAH6UmdeNvEJJM2YAkMZMRASwJfAM4OnA44B5gxa1fH/Xfv5P+79vj4gfACcB3wB+mpk5VHGS7s4AII2BiLgnsCPNRX8nmqH8STYPeHz7OQy4KiK+SRMGvpWZfxqyOEkGAGkwETGP5qK/F7AbsPKgBfXrvjTfcy/glog4AfgkTRi4fbiypHoZAKQRi4jNaC6ELwbWH7aaQawM7NF+fhsRnwE+mZkXDluWVBfnAZBGICJWioh9I+JHwAXAv1Lnxf+u1qfZFxdExI/afbTS0EVJNTAASD2KiNUj4kDgUuBjwDYDlzTOtqHZR5dGxIERsfrQBUnTzAAg9SAi1oqIQ2nel38PsOHAJU2SDWn22WURcWj7GqSkwgwAUkERsU5EvBO4HHgbsM7AJU2ydWj24eUR8c6IcF9KBRkApAIiYn5EvAa4GHg9sObAJU2TNWn26cUR8ZqI8OFlqQADgNRRROwEnAu8D1h74HKm2do0+/jcdp9L6sAAIM1RRDw0Ik6kme1u06HrqcimwEkRcWJEPHToYqRJZQCQZikiVomII4HzaGbu0zCeAZwXEUdGxCpDFyNNGu+lSbMQEVsBn6ZZgW+c/Qn4PXDtXf68678DWJfmgbs7/lxnCf/uniOsfTZWpJlH4JkRsWdmnj10QdKkMABIM9A+eHYI8CbG67+bq4DvAacDZwC/AX6fmbeV7KT9/usA96OZ3/+JwBMYnzULNgN+EBGHA4eV/v7SNBqnv8iksdRO3ftpmmV4h3YJzcX+dOD0zLx4FJ22F9Sr28/ZwPsBIuLBNGHgjs8mo6hnKeYDbwF2bkcDnFpYWgYDgLQM7Sx+RwBD3GNeRPOcweIX/N8OUMdStQHkYuBYgIhYnzsHgkcy+meNtgLOjog3ZubRI+5bmhgGAGkJImI1mova8wbo/mrg34GPZublA/Q/Z21A+UL7ISL+DngFsC9wnxGWsgrwnoh4LPCyzLxphH1LE8G3AKS7iIgHAGcy+ov/aW2fG2XmIZN28V+SzLw8Mw8BNqL5bqeNuITnAWe2x1TSYgwA0mIiYgfgLGCLEXV5Hc399M0yc4fM/EJmLhxR3yOTmQvb77YDzQN776f57qOwBXBWe2wltQwAUqudyvdbNK++9W0BsA+wYWYekJk/G0GfYyEzf5aZB9As+rMPzb7o27rAt9pjLAkDgERErBARx9BMM9v3czFfArbJzG0y89ia701n5k3tPtiGZingL/Xc5XzgfRFxTET4d5+q538EqlpEzAM+BezXc1e/AHbMzOdk5ih+450ombkgM58D7Eizr/q0H/Cp9thL1TIAqFoRsRLwReDFPXZzE/BGYPPMPKXHfmYtIlZr33YYG+0+2pxmn/U5OvJi4IvtOSBVydcAVaWIWBX4L6DPVeW+BByYmb/usY+liohHAA8CNqC5377hXf75nu3P/Qm4ov1ceZd//t/MPH+UdWfmrcA7IuIzwNHAs3vq6v8AJ0TEszLz5p76kMaWAUDViYg1ga8B2/fUxUXAqzPzWz21v0TtdL1PBHYHdgPuP8NN79l+lri+QURcBpwAfIVmMqKRTLPbBqfnRMSOwP8DHtJDNzvRrCy4S2Ze30P70tjyFoCq0g55n0w/F/+baNYKeOSoLv4RsXpEPDsiPg1cA3wHeA0zv/jPxP3bNr8DXBMRn277XL1gH0vV7stH0uzbPm4LbA+cPG63Q6S+GQBUjfY35OOBbXto/iRg08w8oh3C7lVEbBwR/0Gzot/xwEuAtfvut+3jJW2f10bEf0TExn13mpm3ZuYRwKY0+7q0bYHj23NEqoIBQFWIiKCZ2vfpPTR/JLDzKGbui4h1I+Jo4Oc0D7INsUbBHVZpa/h5RBwdEb3Pn9Du451p9nlpTweObc8VaeoZAFSLI2l+cy3pVmDvzDwoMxcVbvtO2if230izGuBrgXF6en0lmpouiYg39j2UnpmLMvMgYG+aY1DSS+gnXEhjxwCgqRcRrwNeV7jZ3wH/kJmfLNzunUTEvIh4Oc2Ke4cD9+izv47uQVPjxRHx8r7fs2/3/T/QHIuSXteeM9JUMwBoqkXEiyj/G935wGMy83uF272TiLgv8D3gozSv702KDWhq/l77HXrTHoPH0ByTko5szx1pahkANLUiYkuaZXVL3tM9EdguM39VsM27iYitaBYlelyf/fTscTSL8GzVZyftsdiO5tiUEsC/t+eQNJUMAJpKEXFPmifVSz4k9x5g177fF4+I5wGnA/frs58RuR9wevudetMek11pjlEpq9C8GXDPgm1KY8MAoGn1SWCTQm0tBPbNzH/p82G/aBwG/Cewal/9DGBV4D8j4rA+n7BvHw78F2BfmmNWwiY055I0dQwAmjoR8a80s+GVsBDYJTM/Xqi9JYqINWimJn5Tn/0M7E3Af7XftTftsdqFciFg9/ackqaKAUBTJSKeCBxRsMl9M/Pkgu3dTUSsDJxCudAyznYHTmm/c2/aY7ZvwSaPaM8taWoYADQ1ImId4DjKrXFxaGZ+ulBby/IxJvthv9l6HM137lV77A4t1Nx84Lj2HJOmggFA0+T9wPqF2vpYZh5WqK2laoeWS09QNFM30e+Su8vyklEMq7fHsFTYWJ/mHJOmgvNeaypExC7ACws19w1g/0JtLVVEPBP4t777Ac4Fvk4zmdBfl/rNzOvaOtbizssEP5hmut3Ne67r3yLiwsws+frekuxP872eUaCtF0bEf2bm1wq0JQ3KAKCJ117APlyouQXAHpl5e6H2ligiNgU+Rz+jcLfTvEZ4AnBCZv5yWT/cBoHrgAsX+9dvahf52a39PBEoPbPfCsDnIuJxmfmzwm3/VWbeHhF7AKcBWxdo8sMRcfodAUqaVN4C0DR4N2VmyvslzaI+NxZoa6ki4l7AVyk/re8imlfWNs7MHTLzvcu7+C9LZv6ybWMHYOO27dKvQd4D+Gq7T3rTHtOdaY5xVxvQnHPSRDMAaKJFxI7Aywo09Xvg6Zl5dYG2lucTwIMKt3kisEVm7p2Zvy7cNpn568zcG9iCsjPuQbMvPlG4zbtpj+3TaY51Vy9rzz1pYhkANLHaVec+WqCpv9DM8PeLAm0tU0TsQDNjXSmXAk/KzJ0zs/R8+HeTmedn5s7Ak9q+S9m13Te9ao/xrjTHvKuP9r3yodQnA4Am2YHA/Qu086rMPLNAO8vUzoJ3VMEmT6NZlOi7BduckbbPx7Q1lHJUnzMF3qE91q8q0NT9ac5BaSIZADSRIuLewOsLNPWdvmf5W8zzgVIL43wYeGpmlhjOnpO276dS7gHMrWj2Ue/aY/6dAk29vj0XpYljANCkOpTuD9HdDPxjgVqWKyJWAg4v0NQimhGL/TPztgLtdZKZt2Xm/jS/UZd4QPDwdl+Nwj/SnANd3INykw1JI2UA0MSJiAcB+xVo6m2Z+b8F2pmJV9I8Sd/VmzLzgwXaKaqtqcQ6BhvT7Kvetcf+bQWa2q89J6WJYgDQJDoCWLFjG+cA7ypQy3K1y8mWuDh+NjNHMXHQnLS1fbZAU28a4RK876I5F7pYkbLrT0gjYQDQRImIxwLP7djM7TSL/IxqCP21QNc55H/EDBa3iYgNImL/iPj3iPhJRCyIiI9ExCsiYr2ONczEvjS1drEOzT7rXXsO7EtzTnTx3PbclCaGAUCT5s0F2nh/Zi4o0M5MdQ0sVwG7Z+YyX12LiL1pZvP7ELAPsCXNg3WvAD4CXNDOiNebtsbd25q76LrPZqw9F0rM8V/i3JRGxgCgiRERm9FM5NLFrxjhQ1vtveGHd2zmkMz87TL6iIg4HjgWWNbQ+bo0K9od27GeZWprPaRjMw8f8X31Q2nOjS6e3p6j0kQwAGiS/AvQ9T3x/fqe6vcuduu4/YU0U/Auy6uBZ8+izb0jYs85VzQzn+TOawvMRdd9N2PtOdH1wdKgOUeliWAA0ESIiPsCL+rYzGcz8+QS9czC7h23P3hZCxO1vyW/Yw7tvi8iSqyfsERtzQd3bKbrvpuV9tzo+hDji9pzVRp7BgBNilcDK3fY/kZGPGtbO0HMdh2a+F5mfnU5P/NyYC7T0a4FvHQO281YW/v3OjSx3QCT7BxIc67M1co056o09gwAGnsRsTrdh2c/lZm/K1HPLOxCt//GZjJxUJeZBUvNSrgsXSY/WoFmH45Me458qmMz+7XnrDTWDACaBHsBXZaLTeB9ZUqZlS73sP8MnDqDnxv3AHAqzXeZq5E9B7CY99GcM3N1L5pzVhprBgBNgq5D1Sdl5kVFKpmdJ3fY9huZuXBZPxAR84FVOvSxRodtZ6T9Dt/o0ESXfTgn7blyUsdmer29IpVgANBYi4iHANt0bOa9JWqZjXYmuy4X2BOW9wPtJDbndujjxx22nY3lfpdlWGOEswIurus5s0177kpjywCgcffCjttfkJmnFKlkdro8YX8rM/+t+ewO/XTZdja+QfOd5qq3txWWpj1nLujYTNdzV+qVAUDjruurf0Pc+wdYv8O2CzJzpvfNj59jH7cD/zXHbWel/S5dZl7ssi+76HrudD13pV4ZADS22rnVu8wG93vgM4XKma0uv7X+eqY/mJnfAT46hz7ePeLpkGf8nZZg5CMArc/QnENz9SDXB9A4MwBonHX9Deojmdl1vfe56nLRumKWP/864JJZ/Px5jH7e+tl+p8UNEgDac+cjHZtxFEBjywCgcTab6W3vaiHwwVKFzEGXYetZXSwz83pga+DTy/tR4Bhgu8y8ZY61zVWXADDULQBozqFlvo2xHF3OYalXBgCNpYhYm26/+X0xM68sVc8cjHIEgMy8LjNfCuwMfIG/jQgkcBHweeApmflPmXlDh9rmauJGAADac+iLHZrYoD2XpbEzf+gCpKXYpOP2c7kvXtJ9Omw756V0M/NE4ESAiFgLWDSLBwr71GV54C77soSP0u2J/k3o9hCk1AtHADSuru24/eOLVDF313fY9h4lCmhHBcbh4g/dvlOXfVlC13Op67ks9cIAoHF1OdDlAb5XRsSKpYqZgy63HzYsVsX46PKdBruV055Dr+zQxM0057I0dgwAGkuZuQj4TocmNgCeW6icuehy0RrsnnePunynIZ/leC7dav9Oey5LY8cAoHHWdW32A4pUMTe/7bCtIwB31mVfdtX1HOp6Dku9MQBonJ0AdHli/TERsW2pYmbJWwB3NnG3ANpz5zEdmriBbusgSL0yAGhsZeZNwFc6NvPaErXMQZeL1hYREcUqGVj7Xbbo0MRQtwC6njtfac9haSwZADTuug6hPisiNipSyex0uWjdF5imKWQfS/Od5mrkAaA9Z57VsRmH/zXWDAAad6cAV3fYfj7djFwyTwAAEvVJREFUnuKeq2toFtyZq91LFTIGunyX22n25ai9km7zpFxNc+5KY8sAoLGWmbcDx3Vs5hURsVqJemaqffL7vA5NGAAa5436Kfr2XHlFx2aOa89daWwZADQJPkgzpe1crQ3sWaiW2ejyANhDI+JhxSoZSPsdHtqhiSEeotuT5pyZq2TYdSikGTEAaOxl5kXAVzs285oBHqzr+gDjfkWqGFbX79B1H85Ke468pmMzX23PWWmsGQA0Kd7VcftNgb0K1DFjmflT4LIOTewfERuXqmfU2tr379DEZe0+HKW9aM6VLrqeq9JIGAA0ETLze8APOzbz7ohYr0Q9s9BlCHsl4LBShQzgMJrvMFcjHf5vz413d2zmh+25Ko09A4AmSdffrNYG3l+ikFnoOoT9goh4VJFKRqit+QUdmxnp8D/NudF16V5/+9fEMABoknwZuLRjG8+LiGeWKGaGTgf+2GH7AN41SRMDtbW+i6b2ufojzb4bifaceF7HZi6lOUeliWAA0MRoX6s6qkBTx0TEGgXaWa7MvA34esdmngy8pUA5o/IWmpq7+Hq773rXngvHFGjqKF/90yQxAGjS/Dtwccc2NgKOKFDLTL2Xbq8xArw5Ip5dopg+tTW+uWMzSbPPRuUImnOii4tpzk1pYhgANFHa3woPLtDUKyPicQXaWa7M/DHw+Y7NBPCpiOgyp36v2to+Rbehf4DPt/usd+05UGKmyINHNWIhlWIA0MTJzC8B3+/YzArAxyJixQIlzcSbgFs6trE6cEJE3K9APUW1NZ1AU2MXt9Dsq961x/5jdP978PvtOSlNFAOAJtW/FmjjEcBBBdpZrsz8FWVmh7s/cNaAyxzfTVvLWTS1dfXBdl+NwkE050BXJc5FaeQMAJpImXkGZV4TOyQiukxVOxuHA9cVaOe+wGkRsXeBtjppaziNbqv93eE6mn3Uu/aYH1Kgqa+056I0cQwAmmRvALred10Z+GxEdB26Xq7M/APwjkLNrQQcGxFHR0SXVevmJCLmR8TRwLF0m+xnce9o91Gv2mP9WZpj38VtNOegNJEMAJpYmfkL4J0FmtoK+EJEzCvQ1vK8H7i8YHuvBS6MiOcUbHOZ2r4ubPsu5XJGMElTe4y/QHPMu3pnew5KE8kAoEn3NpqLUVfPAD5coJ1lysy/0Mw3X/KJ8QcDX4yIH0bE9gXbvZOI2D4ifgh8se2zlNuAvdp907cP0xzrri6kOfekiWUA0ETLzFuBlwEl1ozfNyK6vsO+XJn538ABPTT9GJpnA06OiJdGxDpdG4yIddq2Tqa51/+Yrm0uwQHtPulVe2z3LdDUIuBl7bknTSwDgCZeZv4QOLpQc28dxcN1mfkh+htx2BH4JHB1RJwWEQdGxINncosjIua1P3tgRJwGXN22tWNPtX643Re9ao/pWws1d3R7zkkTLTK7TlA2g04idgJOmuPmJ2fmTiXr0fSJiFWBcygzNH0bsHNmnlygraVq30P/FvCkPvtZzO00F/QrgCvbPwE2BDZo/7wPMIpnIaAZUdgxMxf22UlEPI1mOuYSD0teDGyRmTcXaEtTLCK+CTxtjps/PTO/WbKeJRn508NSHzLz5ojYB/gu3Weimw8cHxHb9zkjXWYubB+oOwvYuK9+FjOP5kK/wQj6Wp5fAs8ZwcX/0cDxlPm7LoF9vPhrWngLQFMjM0+n3HvkawAnRsQDCrW3RJn5e2BX4IY++xkzNwC7tt+9N+2xO5HmWJZweHuOSVPBAKBp8xbg1EJt3Rc4KSLuVai9JcrM84FdgN7fgR8DfwB2ab9zb9pjdhJlJiiC5pyapBUZpeUyAGiqZOYi4AX87f52Vw8DTu17/v3MPI3mCfsSrzSOqwuBx7TftTftsTqV5tiVcAXwgvbckqaGAUBTJzN/B+wBlLq/vCXwo4jo4xW4v8rMS4BtaYatp82JwLbtd+xNe4x+RHPMSlgI7NGeU9JUMQBoKmXmmZRd6Gd94LsR8fyCbd5NZv6Z5pmAI/vsZ8SOpLnn/+c+O2mPzXdpjlUpB7XnkjR1DACaWpl5NM2sdaWsAnw+It4aEV3fNFiqzFyUmQcBLwFGMTteX/4CvCQzD+pz+DwabwU+T3OMSvliew5JU8kAoGm3J1D6ye03A8e1cw/0JjM/AzwemMTfQM8EHt9+h960x+A4mmNS0uk05440tQwAmmrt/PK7AucVbvq5wOkR0es79Zn548x8PPAs4KI++yrkIuBZmfn4PudQAGj3/ek0x6Kk82huWUzy6Iu0XAYATb3MvA7YCbiscNNbAWdFRImV5ZYpM78MPBz4J5rZ/MbN1TS1PbyttVftPj+LMqv6Le4yYKf2nJGmmgFAVcjMK2nms7+2cNMb0IwE9PpwIEBm3paZxwAPolmJ7sa++5yBG2lqeVBmHpOZJVc5XKKIeAHNb/6lR1+upZma+MrC7UpjyQCgamTmRTRLwZa+cK5K83Dg1yPigYXbvpvMvCEz3wI8EHgV8G3KvfI4EwvbPl8FPDAz35KZvc9kGBEPjIivA5+j2ecl3Qg8oz1HpCoYAFSVzDwLeCb9TL37TOCCiHhLRJR8Gn2JMvOazPxgZj4VWA94EfAF4Poeuru+bftFwHqZ+dS272t66OtOImKViPi/wAU0+7i0G4BntueGVA0XA1J1MvO7EfEUmqli1y7c/CrA/wVeEhGvycxvFG5/idp71p8DPhcRKwFPBnYGNqF5L34DYF2Wv1BS0gyFXwn8FriEZiW972Tmrf1Uv3QRsTPwfvpbLOmPNCuvubyvqmMAUJUy84cRsQPNcrzr9dDFJjSLCZ0AHJCZpR9AXKr2Qv3N9vNX7fLD6/O3QHDHPfQr+dsF/7d9r9A3ExGxMfA+mjUS+nINzT3/c3rsQxpbBgBVKzPPiYjtae5nb9hTN7sBO0bE4cBRQ/wWfYf2wn55+xlL7a2Tg4A3UHZSn7u6AnhKZv68xz6kseYzAKpaewF4Is369H1ZFTgMOD8iduqxn4nWDvdfQHMLpc+L/y+BJ3rxV+0MAKpeZv6SZsa9H/Tc1YNplhc+JyL2j4g1e+5v7EXEPSLilRFxPvA1mjcb+vQDmhkK+wx80kQwAEhAZv4WeBJw7Ai62xz4EHBlRBwTEVuMoM+xEhGPioiP0jx78AGaSY76dizwpPZYS9UzAEitzLwlM/cBXg30PqENsAawH/DTiDgzIvYcxeuDQ2lf53tpRPwA+DHwcmD1EXR9G/DqzNwnM28ZQX/SRDAASHeRmR8AngKMcg34bYFPAVdExLsj4sEj7LtXEfGQiHg3zYN3nwQeO8Luf0fzsN8HRtinNBEMANISZOZ3ga2Bs0fc9b2AfwZ+ERHfjojXRsRWETFvxHXMWUTMa2s+ICK+Dfyc5jvda8SlnA1s3R5LSXfha4DSUmTm5RGxLc1SswcDo7wIB/AP7Qfg+oj4Ps0c+KcDPxyX1era2xaPpXmb4ok0oxlDPuB4O/AO4G3jMKeBNK4MANIytBeQQ9s56D8NPGSgUtakWcxox/Z/3xoRC/hbIDhjVCvYRcRaNG9N3HHB3xpYaRR9z8BFwJ7O7CctnwFAmoF25sBHAUfSLHu7vCl1+7YSsF37OQhYFBEXAr+hue997TI+v8/M2xdvrL3FsA7NdMFL+9wbuB+wGeN3+zBp3qx4fWbeNHQx0iQwAEgz1F5YXtVO7/sJ+ps9cC5WAB7RfpYnI+I6/rY08rrAWgwfaubqCmDvzDxl6EKkSTJuKV4ae+2FZlPgncAkvlYWNIsgPbj9rM1kXvxvoTkGm3rxl2bPACDNQWZen5lvoBkO/9LQ9VToS8BmmfmGzOxj+WNp6hkApA4y89LMfA6wPfCToeupwE+A7TPzOZl56dDFSJPMACAVkJn/Q/M0/D40D+KprN/Q7Nut230tqSMDgFRIZi7KzGNpFrTZF7h44JKmwcU0+/KBmXlsZi4auiBpWhgApMIyc2Fmfhx4GPB84JyBS5pE59Dsu4dl5sed0EcqzwAg9aQdETguM7cEdgbOGLqmCXAGsHNmbtnuO3/jl3piAJBGIDNPzMwn0Cx7exTgkrR/81uaffLwzHxCZp44dEFSDQwA0ghl5oWZ+XpgI+AZwBeYzLkEurqF5rs/A9goM1+fmRcOXJNUFWcClAbQTsV7EnBSRKwN7AHsBuwArDJkbT36C/DfwAnAFzLzjwPXI1XNACANrL0QfgT4SESsCjwZeCbNb8f3H7K2Ai4DvgGcCHwnM28euB5JLQOANEbaC+SJ7YeI2IwmCGxHM8/ARsNVNyO/BhYAZwLfcFhfGl8GAGmMtRfQv15EI2I9YCuaMHDHn0MtSnQFzcX+7Dv+zMxrBqpF0iwZAKQJ0l5gT2o/AETEPYC/W8rnfsAawOrAqix/0Z8EbgZuBG6gmYHv8iV9MvPPpb6XpNEzAEgTrr0Qn99+lioigiYErN5+Vmv/r5toLvg3AjdnZvZXraRxYQCQKtFe2G9qP78buBxJA3MeAEmSKmQAkCSpQgYASZIqZACQJKlCBgBJkipkAJAkqUIGAEmSKmQAkCSpQgYASZIqZACQJKlCBgBJkipkAJAkqUIGAEmSKmQAkCSpQgYASZIqZACQJKlCBgBJkio0f+gChhYRKwAPBbYGHgmsNGxF6tHNwLnAAuB/MzMHrkeSBlN1AIiI7YFPAg8YthIN4BcRsWdm/mjoQiRpCNXeAoiIo4D/xot/rR4KnBkRhw5diCQNocoAEBH7AK8DYuhaNKh5wNsi4tlDFyJJo1ZdAIiIBwBHD1yGxsuHI+I+QxchSaNUXQAA9gPWHLoIjZV1gb2GLkKSRqnGALD10AVoLD1q6AIkaZSqCgAREcBWQ9ehsfTooQuQpFGqKgAAKwNrDV2ExtJ6QxcgSaNUWwCQJEkYACRJqpIBQJKkChkAJEmqkAFAkqQKGQAkSapQ1asBztJtwL8OXYSWaVXgiKGLkKRJYACYudsz871DF6Gli4i1MABI0ox4C0CSpAoZACRJqpABQJKkChkAJEmqkAFAkqQKGQAkSaqQAUCSpAoZACRJqpABQJKkChkAJEmqkAFAkqQKGQAkSaqQAUCSpAoZACRJqpABQJKkChkAJEmqkAFAkqQKzR+6gAmyQkTsNHQRWqbVhy5AkiaFAWDmVgROGroISZJK8BaAJEkVMgBIklQhA4AkSRUyAEiSVCEDgCRJFTIASJJUodoCwK3ATUMXobH0p6ELkKRRqioAZOYi4KdD16Gx5HkhqSpVBYDWgqEL0Fj6ydAFSNIo1RgAPgPcPnQRGiu3AMcNXYQkjVJ1ASAzzwL+beg6NFYOycyfDV2EJI1SdQGg9VbgW0MXobHwJeA9QxchSaNWZQDIzIXATsA/ATcMXI6GcR3w0sx8TvtwqCRVpdrVADMzgWMi4njgCcDWwCOBlQYtTH26GTiX5kHQMzLzDwPXI0mDqTYA3CEzfwd8uf1IklSFKm8BSJJUOwOAJEkVMgBIklQhA4AkSRUyAEiSVCEDgCRJFTIASJJUIQOAJEkVGlUAuLXDtqsVq0KSpNHocu3qcs2csVEFgKs6bLt5RESxSiRJ6lF7zdq8QxNdrpkzNqoAcGWHbe8JbFKqEEmSerYJzbVrrrpcM2dsJAEgM6+jWYhlrrYuVYskST3rcs26ub1m9m6UDwH+tsO2e5UqQpKknu3VYdsu18pZGWUA+EWHbZ8WES8vVokkST1or1VP69BEl2vlrIwyAHyt4/bvjoj7F6lEkqTC2mvUuzs20/VaOWOjDABfBbLD9msCX4+ILk9WSpJUXHtt+jrNtWqukuZaORIjCwCZeQWwoGMzjwAWRMQhETG/QFmSJM1ZRMyPiENorm+P6NjcgvZaORKjvoh+BdimYxsrAm8HXhAR3wbObj8/z8zbO7YtSdJSRcQ84GHAVu3nKcBmhZr/SqF2ZiQyu4zKz7KziPWAS4A1RtapJEnj7wZgk8y8ZlQdjnQtgPaLvWeUfUqSNAHeM8qLP4x4BAAgItakGQW490g7liRpPP2O5rf/60fZ6chXA2y/4NtH3a8kSWPq7aO++MMAIwAAEbEicCrwxJF3LknS+Dgd+IfMXDjqjgcJAAARsS5wFvCAQQqQJGlYvwK2ycxrh+h85LcA7tB+4V1onnyUJKkmNwC7DHXxhwEDAEBmng+8ELhtyDokSRqh24AXttfAwQwaAAAy82s0Cyf8YehaJEnq2R+Ap7XXvkEN9gzAXUXEA2nmQH740LVIktSDC4BdM/PSoQuBMRgBuEO7Q7YFvjx0LZIkFfZlYNtxufjDGAUAaOYIyMxnATsB5w5djyRJHZ0L7JSZzxriXf9lGasAcIfMPBl4FLA38JuBy5EkabZ+Q3MNe1R7TRs7Y/MMwNJExMo0qy3tTvPa4H2GrUiSpCW6Gvgazap+387MWwauZ5nGPgAsLiJWAB4HPBXYCNhgsc+6QAxXnSSpAglcC1y52OfXwCnADzJz0YC1zcr/B3xnW40AaJ+XAAAAAElFTkSuQmCC;" vertex="1" parent="WIyWlLk6GJQsqaUBKTNV-1">
          <mxGeometry x="205" y="235" width="30" height="30" as="geometry" />
        </mxCell>
        <mxCell id="SsM3ilcu9KNld8kwQiKV-31" value="" style="shape=image;verticalLabelPosition=bottom;labelBackgroundColor=default;verticalAlign=top;aspect=fixed;imageAspect=0;image=data:image/png,iVBORw0KGgoAAAANSUhEUgAAAgAAAAIACAYAAAD0eNT6AAAABHNCSVQICAgIfAhkiAAAAAlwSFlzAAAOxAAADsQBlSsOGwAAABl0RVh0U29mdHdhcmUAd3d3Lmlua3NjYXBlLm9yZ5vuPBoAABQXSURBVHic7d3Pr+V3Xcfx1wxNK4UK+BfgAsEqNYoLE1aGGKN71y40ce/W/0BrXbT8MIGwdW/kR8EKCEkNiUCDJIImRNdIYzUB2um4uAwOw8y955zv9/Pr+348krvg1+Scm/O67+c9t3NJAAAAAAAAAAAAAAAAAAAAAAAAAAAAAAAAAAAAAAAAAAAAAAAAAAAAAAAAAAAAAAAAAAAAAAAAAAAAAABgq1sP+ffen+SPk3woybuTvK3nAwIAdvG/Sb6b5PNJPp7km/f/h/cHwBNJ/irJnyS53enBAQDt3UnysSR/muRHyf8HwBNJPp3kt8c8LgCgg5eS/F6SH73lx//GC0n+YNzjAQA6+MUk70ry6Vu5+pn/1+NtfwCo4E6SX3tLkj9L8luDHwwA0MftJD+8leRfkjw9+MEAAP1881aS15K8ffQjAQC6ee1WkrujHwUA0Jd/8A8AChIAAFCQAACAggQAABQkAACgIAEAAAUJAAAo6LEd/oxbN/9XgEG2/p4P+4Z5bdq3dwAAoCABAAAFCQAAKEgAAEBBAgAAChIAAFCQAACAggQAABQkAACgIAEAAAUJAAAoSAAAQEECAAAKEgAAUJAAAICCBAAAFCQAAKAgAQAABQkAAChIAABAQQIAAAoSAABQkAAAgIIEAAAUJAAAoCABAAAFCQAAKEgAAEBBAgAAChIAAFCQAACAggQAABQkAACgIAEAAAUJAAAoSAAAQEECAAAKEgAAUJAAAICCBAAAFCQAAKAgAQAABQkAAChIAABAQQIAAAoSAABQkAAAgIIEAAAUJAAAoCABAAAFCQAAKEgAAEBBAgAAChIAAFCQAACAggQAABQkAACgIAEAAAUJAAAoSAAAQEECAAAKEgAAUJAAAICCBAAAFCQAAKAgAQAABQkAAChIAABAQQIAAAoSAABQkAAAgIIEAAAUJAAAoCABAAAFCQAAKEgAAEBBAgAAChIAAFCQAACAggQAABQkAACgIAEAAAUJAAAoSAAAQEECAAAKEgAAUJAAAICCBAAAFCQAAKAgAcDRfCDJx5L8W5IfJvlBkm8n+XCS9w98XKzhl5L8RZJvJPl+kleTvJLkL5P88sDHBU3c3fgBM3hrkk8meTOPfq3eSfKRJI8Peowj2PdpHkvyXJLX8+jPxRtJnk+t1w9z27xvXyBY3TuTvJzTX7Mvpc4Xcfu+2WNJPpXTPydfSPLUiAcKDxAAlPbOJF/N+a/b50c82AHs+2bP5fzPy5cjAhhPAFDWpcf/bq7ezn26/0Puzr6v955c/7b/dR9fSfLz/R8y/IQAoKR3JPmnbHvtPtf9Ufdn39d7Nts+PyKAkQQA5Wz5zv/+j1d6P/AB7Pt638j2z5EfBzCKAKCUPb7zv/fxaufHPoJ9X+/V7PNa8k4AIwgAytjz+N9N8r2+D38I+77e97Pf60kE0JsAoIS93va//+NrXZ/BGPZ9vVey72vKjwPoadPr1W8CZAXvSPLZJL+585/74s5/Huv53M5/3geTfCbeCWARvkNgZnu/7X/v440k7+v4PEax7+u9N5f/NcDrPvw4gB4279sXCGbV4m3/ex/PdnweI9n3zZ5Pm9eYHwfQmgDgkFoe/8/m6te/VmDfN3s8yRcjAliPAOBwWr3tfzfJl5K8vd9TGc6+T/O2JP+QNq85Pw6gFQHAoTj++7Lv04kAViMAOAzHf3/2fR4RwEoEAIfg+Ldh3+cTAaxCALA8x78d+76MCGAFAoClOf5t2fflRACzEwAsy/Fvz763EQHMTACwJMe/D/veTgQwKwHAchz/fux7HyKAGQkAluL492Xf+xEBzEYAsAzHvz/73pcIYCYCgCU4/mPY9/5EALMQAEzP8R/HvtsQAcxAADA1x38s+25HBDCaAGBajv949t2WCGAkAcCUHP852Hd7IoBRBADTcfznYd99iABGEABMxfGfi333IwLoTQAwDcd/PvbdlwigJwHAFBz/Odl3fyKAXgQAwzn+87LvMUQAPQgAhnL852bf44gAWhMADOP4z8++xxIBtCQAGMLxX4N9jycCaEUA0J3jvw77noMIoAUBQFeO/1rsex4igL0JALppefz/MY5/C/Y9FxHAngQAXTj+a7Lv+YgA9iIAaM7xX5d9z0kEsAcBQFOO/9rse14igK0EAM04/uuz77mJALYQADTh+B+Dfc9PBHApAcDuHP/jsO81iAAuIQDYleN/LPa9DhHAuQQAu3H8j8e+1yICOIcAYBeO/zHZ93pEAKcSAGzm+B+Xfa9JBHAKAcAmjv+x2fe6RAA3EQBczPE/PvtemwjgOgKAizj+Ndj3+kQAjyIAOJvjX4d9H4MI4GEEAGdx/Gux7+MQATxIAHAyx78e+z4WEcD9BAAncfxrsu/jEQHcIwC4keNfl30fkwggEQDcwPGvzb6PSwQgAHgkxx/7PjYRUJsA4KEcfxL7rkAE1CUA+Bmtj/9T/Z4KG9l3DSKgJgHAT3H8uZ991yEC6hEA/ITjz4PsuxYRUIsAIInjz8PZdz0ioA4BgOPPI9l3TSKgBgFQnOPPdey7LhFwfAKgMMefm9h3bSLg2ARAUY4/p7BvRMBxCYCCHH9OZd8kIuCoBEAxjj/nsG/uEQHHIwAKaXn8vxzH/4jsm/uJgGMRAEU4/lzCvnmQCDgOAVCA48+l7JuHEQHHIAAOzvFnC/vmUUTA+gTAgTn+bGXfXEcErE0AHJTjzx7sm5uIgHUJgANy/NmLfXMKEbAmAXAwjj97sm9OJQLWIwAOxPFnb/bNOUTAWgTAQTj+tGDfnEsErEMAHIDjTyv2zSVEwBoEwOIcf1qyby4lAuYnABbm+NOafbOFCJibAFiU408P9s1WImBeAmBBjj+92Dd7EAFzEgCLcfzpyb7ZiwiYjwBYiONPb/bNnkTAXATAIhx/RrBv9iYC5iEAFuD4M4p904IImIMAmJzjz0j2TSsiYDwBMDHHn9Hsm5ZEwFgCYFKOPzOwb1oTAeMIgAk5/szCvulBBIwhACbj+DMT+6YXEdCfAJiI489s7JueREBfAmASjj8zsm96EwH9CIAJOP7Myr4ZQQT0IQAGc/yZmX0zighoTwAM5PgzO/tmJBHQlgAYxPFnBfbNaCKgHQEwgOPPKuybGYiANgRAZ44/K7FvZiEC9icAOmp5/L8Sx5/92TczEQH7EgCdOP6syL6ZjQjYjwDowPFnVfbNjETAPgRAY44/K7NvZiUCthMADTn+rM6+mZkI2EYANOL4cwT2zexEwOUEQAOOP0dh36xABFxGAOzM8edI7JtViIDzCYAdOf4cjX2zEhFwHgGwE8efI7JvViMCTicAdvDWJC+nzQvOr/dlJPtmRU/l6mtni6/JX0ryeL+n0pQA2MEn4/hzTPbNqlpGwEc6Po+WBMBGH0jyZhx/jqn6vllbqwi4k+SZjs+jFQGw0V9n/xeXn/kzi+r7Zn2t/pmAF3o+iUYEwEb/nn1fVL7zZybV980xtHgn4F+7PoM2BMAGt5L8MPu9oHznz2wq75tj2fudgB/k6gasbNPn4PaABzybvb/Irf6CApiVr687q/4dwneyX1HejR8BMJfq++YYWvwI4Dtdn0Eb3gHY6LM7/3kfTPKZHOuXTQCM8rYkf5urr617enHnP29J1b9DeCZXfyVkz7L0TgCzqL5v1tbqrwG+meQ3Oj6PVjbv2xeI5KPZ/wUmApiBfbOqlr8I6OMdn0dLAmAHT+Tq10OKAI7GvllRy+P/cq5+/fsRCICd+D+g4Ijsm9W0/Fr8z0l+od9TaU4A7EgEcDT2zUoc//MIgJ2JAI7EvlmF438+AdCACOAo7JsVOP6XEQCNiACOwL6ZneN/OQHQkAhgdfbNzBz/bQRAYyKAldk3s3L8txMAHYgAVmXfzMjx34cA6EQEsCL7ZjaO/34EQEcigNXYNzNx/PclADoTAazEvpmF478/ATCACGAV9s0MHP82BMAgIoAV2DejOf7tCICBRACzs29GcvzbEgCDiQBmZt+M4vi3JwAmIAKYlX0zguPfhwCYhAhgRvZNb45/PwJgIiKA2dg3PTn+fQmAyYgAZmLf9OL49ycAJiQCmIV904PjP4YAmJQIYAb2TWuO/zgCYGIigNHsm5Yc/7EEwOREACPZN604/uMJgAWIAEaxb1pw/OcgABYhAhjBvtmb4z8PAbAQEUBv9s2eHP+5CIDFiAB6sm/24vjPRwAsSATQi32zB8d/TgJgUSKAHuybrRz/eQmAhYkAWrNvtnD85yYAFicCaMm+uZTjPz8BcAAigFbsm0s8Gcd/BQLgIEQALdg353oyyUtx/FcgAA5EBLA3++Ycjv9aBMDBiAD2ZN+cyvFfjwA4IBHAXuybUzj+axIAByUC2IN9cxPHf10C4MBEAFvZN9dx/NcmAA5OBLCFffMojv/6BEABIoBL2TcP4/gfgwAoQgRwCfvmQY7/cQiAQkQA57Jv7uf4H4sAKEYEcA775h7H/3gEQEEigFPZN4njf1QCoCgRwCnsG8f/uARAYSKAm9h3bY7/sQmA4kQA17Hvuhz/4xMAiAAeyb5rcvxrEAAkEQE8nH3X4/jXIQD4CRHAg+y7Fse/FgHATxEB3M++63D86xEA/AwRwD32XYPjX5MA4KFEAIl9V+D41yUAeCQRgH0fm+NfmwDgWiKgNvs+LscfAcCNREBd9n1Mjj+JAOBEIqAm+z4ex597BAAnEwH12PexOP7cTwBwFhFQi30fh+PPgwQAZxMBddj3MTj+PIwA4CIioAb7Xp/jz6MIAC4mAo7Pvtfm+HMdAcAmIuDY7Htdjj83EQBsJgKOy77X5PhzCgHALkTAMdn3ep5M8vdx/LmZAGA3IuB47Hstjj/nEADsSgQci32vw/HnXAKA3YmA47DvNTj+XEIA0IQIOAb7np/jz6UEAM2IgPXZ99wcf7YQADQlAtZm3/Ny/NlKANCcCFiXfc/J8WcPAoAuRMCa7Hs+jj97EQB0IwLWY99zcfzZkwCgKxGwFvueh+PP3gQA3YmAddj3HBx/WhAADCEC1mDf4zn+tCIAGEYEzM++x3L8aUkAMJQImJt9j+P405oAYDgRMC/7HsPxpwcBwBREwJzsuz/Hn14EANMQAfOx774cf3oSAExFBMzFvvtx/OlNADAdETAP++7D8WcEAcCURMAc7Ls9x59RBADTEgHj2Xdbjj8jCQCmJgLGsu92HH9GEwBMTwSMY99tOP7MQACwBBEwhn3vz/FnFgKAZYiA/ux7X44/MxEALEUE9GXf+3H8mY0AYDkioB/73ofjz4wEAEsSAX3Y93aOP7MSACxLBLRn39s4/sxMALA0EdCWfV/O8Wd2AoDliYB27Psyjj8rEAAcgghow77P92SSz8fxZ34CgMMQAfuz7/M4/qxEAHAoImBf9n06x5/VCAAORwTsx75P4/izIgHAIT2V5Mtp8wX5i0ke7/dUhrLvmz2W5MW0ea19Nck7+z0VihEAHFbLCHi+4/MYyb5v9lwcf9YkADi0VhHwRpKnOz6PUez7eu9J8nr2f315258eBACH1+qfCXiu55MYxL6v92wcf9YlACihxTsBr3R9BmPY9/W+kX1fU972pycBQBl7vxPwat+HP4R9X+/V7Pd68p0/vQkAStkzAr7X+bGPYN/X+34cf9YlAChnrx8HfK33Ax/Avq/3SrZ/jrztzyibXru3Bzxg2Oq1JL+b5Asb/5wXtz8UFve5jf/7r+XqtVjhx0kckO8QWNWWHwe8keR9/R9yd/Z9vffm8r8G6G1/Rtu8b18gWNmlPw54dsSDHcC+b/Z8zv+8eNufGQgAynsqV7/e99TX7N/l6te/VmDfN3s8yUs5/XPychx/5iAAIFdfxF/I1Vv7j3qtvp6r7/yrHP/Evk/1RJKPJrmTR38u3kzyiSQ/N+gxwoMEANzn6Vz9hr9XcvUPZv1Xkq8n+fNc/drXauz7PM8k+XCSbyf5wY8/vpOrOPj1gY8LHmbTvm9l+8hvbfzfA+3YNxzXpn37a4AAUJAAAICCBAAAFCQAAKAgAQAABQkAAChIAABAQQIAAAoSAABQkAAAgIIEAAAUJAAAoCABAAAFCQAAKEgAAEBBAgAAChIAAFCQAACAggQAABQkAACgIAEAAAUJAAAoSAAAQEECAAAKEgAAUJAAAICCBAAAFCQAAKAgAQAABQkAAChIAABAQQIAAAoSAABQkAAAgIIEAAAUJAAAoCABAAAFCQAAKEgAAEBBAgAAChIAAFCQAACAggQAABQkAACgIAEAAAUJAAAoSAAAQEECAAAKEgAAUJAAAICCBAAAFCQAAKAgAQAABQkAAChIAABAQQIAAAoSAABQkAAAgIIEAAAUJAAAoCABAAAFCQAAKEgAAEBBAgAAChIAAFCQAACAggQAABQkAACgIAEAAAUJAAAoSAAAQEECAAAKEgAAUJAAAICCBAAAFCQAAKAgAQAABQkAAChIAABAQQIAAAoSAABQkAAAgIIEAAAUJAAAoCABAAAFCQAAKEgAAEBBAgAAChIAAFDQrSR3Rz8IAKAv7wAAQEECAAAKEgAAUJAAAICCBAAAFCQAAKAgAQAABd1O8troBwEAdPXft5P85+hHAQB09R+3k3xu9KMAALp68VaSX03y9SRvGfxgAID27iR55naSbyb52OAHAwD08eEk37r143/xeJJPJfnQuMcDADT2+SS/n+T1e2/730nyN0neleQD8dcDAeBI7iR5IckfJnk9ufq/A37QryT5oyS/k+TdSd7e6cEBAPv5nyTfTfJikk8k+dbQRwMAAAAAAAAAAAAAAAAAAAAAAAAAAAAAAAAAAAAAAAAAAAAAAAAAAAAAAAAAAAAAAAAAAAAAAAAAAAAAwAH9H4XSeG88O3fyAAAAAElFTkSuQmCC;" vertex="1" parent="WIyWlLk6GJQsqaUBKTNV-1">
          <mxGeometry x="310" y="397.5" width="30" height="30" as="geometry" />
        </mxCell>
        <mxCell id="SsM3ilcu9KNld8kwQiKV-32" value="" style="shape=image;verticalLabelPosition=bottom;labelBackgroundColor=default;verticalAlign=top;aspect=fixed;imageAspect=0;image=data:image/png,iVBORw0KGgoAAAANSUhEUgAAAgAAAAIACAYAAAD0eNT6AAAABHNCSVQICAgIfAhkiAAAAAlwSFlzAAASdAAAEnQB3mYfeAAAABl0RVh0U29mdHdhcmUAd3d3Lmlua3NjYXBlLm9yZ5vuPBoAACAASURBVHic7d152G1nWR/g35OcBGI0QAlTxCCCgCggWEKCMimIICiCSIBWK0LVVii2TkW0oFjqCIhasIBShiRQkCoo4hBEJUwyCIJSlDCDIkNIEALk7R97n3ByOOfknP29e6+193vf1/VdgcB61vN9Z3h+e71rvataa6Gvqjo3yQOm7gMADue4qRsAADZPAACAAQkAADAgAQAABiQAAMCABAAAGJAAAAADEgAAYEACAAAMSAAAgAEJAAAwIAEAAAYkAADAgAQAABiQAAAAAxIAAGBAAgAADEgAAIABCQAAMCABAAAGtG/qBjhqFyT51ambAGDjzkryiN5FBYDt8e7W2rlTNwHAZlVVsoYAYAkAAAYkAADAgAQAABiQAAAAAxIAAGBAAgAADEgAAIABCQAAMCABAAAGJAAAwIAEAAAYkAAAAAMSAABgQAIAAAxIAACAAQkAADAgAQAABiQAAMCABAAAGJAAAAADEgAAYEACAAAMSAAAgAEJAAAwIAEAAAYkAADAgAQAABiQAAAAAxIAAGBAAgAADEgAAIABCQAAMCABAAAGJAAAwIAEAAAYkAAAAAMSAABgQAIAAAxIAACAAQkAADAgAQAABiQAAMCABAAAGJAAAAADEgAAYEACAAAMSAAAgAEJAAAwIAEAAAYkAADAgAQAABiQAAAAAxIAAGBAAgAADEgAAIABCQAAMCABAAAGJAAAwIAEAAAYkAAAAAMSAABgQAIAAAxIAACAAQkAADAgAQAABiQAAMCABAAAGJAAAAADEgAAYEACAAAMSAAAgAEJAAAwIAEAAAYkAADAgAQAABiQAAAAAxIAAGBAAgAADEgAAIABCQAAMCABAAAGJAAAwIAEAAAY0L6qOnvqJnbQ6euo6dcKhvWu1toFUzfBbtmX5Jypm+ConLX8AsZzXhIBgK4sAQDAgAQAABiQAAAAAxIAAGBAAgAADEgAAIABCQAAMCABAAAGJAAAwIAEAAAYkAAAAAMSAABgQAIAAAxIAACAAQkAADAgAQAABiQAAMCABAAAGJAAAAADEgAAYED71lT3ga21c9dUG2C2qurcJA+Yug+4Mq4AAMCABAAAGJAAAAADEgAAYEACAAAMSAAAgAEJAAAwIAEAAAYkAADAgAQAABiQAAAAAxIAAGBAAgAADEgAAIABCQAAMCABAAAGJAAAwIAEAAAYkAAAAAMSAABgQAIAAAxIAACAAe2bugGmVVWV5JQkV09yjSQtyceXXxe11j43YXuztfy5nZrkeklOSvKhJB9orX160sYAjpIAMIiquk6Ss5ZfZya5fhZD/+o5wpWgqrokyceSvCPJm5Zfb0zyN7s87Krq+CS3S/I1WQz5g7+uk+SEQxz30SQfOMTXu5P8WWvtw5voH+DKCAAHqKprJXlwp3LnttY+2KnWMVt+Qv3mJP8mye2TfMWKpU5efn1pkjsd8O8/W1WvS/KcLL7XrR9sVfUlSe6b5B5Z/OyusUKZayy/bn6I/+2y5c/spUle1Fp7w6q99lZVX5Tk36+h9PNaa+/vXbSqbpTk3nss89ettT/t0Q9sIwHgir40yRM61XpVko0HgKo6Ocn3JHl4kput8VT7sriScGaSJ1TVS5M8K4vBdukaz9tdVZ2W5BFJfiDJ1dZ4quOSnLH8+umqOj/JL7TWXrrGcx6tU9Lv9/6BviTJz66h7i2y936fmkQAYFhuAtwRVXVyVf18kvcm+fWsd/gfbF+SeyU5L8lfV9WdN3julVXVvuXP7J1JfjzrHf6Hcpckf1BVf1VVX7Xhc29KrytqQGcCwA6oqtsmeUOSH8tiTX9KN01yflX9VlVdc+JeDmt5T8QfZ/EzO3Hidm6T5DVV9V0T97EON62qr5u6CeALCQBbrKqOr6pHJ3llkq+cup+D/Lskf1tV95y6kYNV1e2TvD5XvKdhal+c5LyqekJV7drSnKsAMEMCwJZa3rD28izWV+c6ME5N8sKquvvUjexXVQ/P4ud22sStHM4jk7x8eV/Crji7qvxdAzPjD+UWqqoTkrwgyTdM3ctRuEqSF1XVN07dSFU9Pcmv5hCP783M1yd5fVXdYupGOrleksl//YErEgC209OS3G3qJo7BVZP8XlXdYaoGquoHkjxkqvOv4DpJzq2qk6ZupBPLADAzAsCWqarHJfnuqftYwRdlMdC+eNMnXt5h/yubPm8HN0/yS1M30cl9q+qqUzcBfJ4AsEWWa+k/OXUfe3Bakkdv8oRVdZUk52SxXe82+g9Vda+pm+jglOx94x6gIwFgu/zM1A108MNVtcknFn4+ya02eL51eEZVXXfqJjqwDAAzIgBsieWnwDOm7qODE5M8cRMnqqp7ZLHD37a7VpLfXm7vvM3uUVWrbK8MrMFcHx/jCz1mTXU/lOQPkrw9yYezePHP1ZJcO8ktk9wzi+1ce7pnVd2mtfb6znUP9qQk6xia70zy5uU/L0xyUZLTk9wwyZdnsT1y782F7p7Fr8VLOtfdpBOT3D/Jb07dCCAAbIWq+rYkvXdTuzCLl7/8cWutHeHcJ2Zx0+Evpu8ug/fJYjOetaiqO6X/5khvSPJzSV54JT+z6yf50SQPS997Dx6a7Q4AyWIZQACAGbAEsB3O7lzvuUm+trX2R0caZEnSWru0tfa0LO5If2vHHu7TsdahfF/neg9vrd2mtfaCo/iZvbe19p+yeAPjWzr2cK/lFsbb7A5V9WVTNwEIANui5yYqD2utPbi19vFjOai19oEsXpPb6w2Ht6iqVV9RfERVdbUk39mx5KNaa792rActXwd99yyutvSwL4s3PW6zSvKgqZsABIDZq6qvyWJTmB7+YvlpfiWttXcn+eVOvSTJt3esdaAHp9+l999orT1+1YNba+/PYtOmizr10/vKxhQ8DQAzIADM31071urxXvbfTnJphzrJ4nW469BrSH4yyU/vtUhr7R1J/ufe20mS3GTKHRU7ucUObXMMW0sAmL9v6lTnta21l+21SGvtw0le2KGfZA0v5KmqW2fxet0entFa++dOtZ6UfsHpoZ3qTMlVAJiYADB/t+tU5w861UmSp3aqs47Nbb6lU53PpeP2wct7KJ7dqVyv73FKD9yBfQ1gqwkAM7b8C/Kancq9p1OdtNZenuRfOpS69hqGwNd2qnN+a+2dnWrt94xOda5dVdfrVGsqpyfZ9qUM2GoCwLxdPf1+jd7bqc5+H+hQ44T0Czj79QoAr+hU50CvTZ/glPT7PqdkGQAmJADMW8/hOMcAkPR7wiFVdXKSG3cq9+ed6lyutXZpkld3KrcLAeD+y42mgAkIAPPWMwD03vWxVwDo+T3eMn1+T/cc1AfrFSx2IQBcI4u9JYAJCADz1nM4Xr9jraTfhkA9fw/2Goqva631ulR/MAHgiiwDwES8C2Deeu6933v71Xdk8SKhver1aFzSbyi+rVOdQ/nbTnVuXFUnt9Yu6VRvKveuqlNaa702SgKOkgAwbz0/hZ7esVZaa0/K4tn2OekVAN7Vqc6hvD+LRwyP32Od47JY8rhgzx1N66pJ7pvFBlPABlkCmLePday1rm135+Qmneq8u1OdL9Ba+1z63T/R6/vt5bIkR3xR0mFYBoAJCADz9tGOtb6qqnq+VGhWqmpfkqt1Kre2ALDUa0+GUzvV6eXNSc5f4bhv3IF9DWDrCADz1jMAJMkPda43J9fM4k1zPQgAq3vuCsccl/6vvAauhAAwbz2XAJLkPlW1C2+TO5Sew7DbromH0WtPhjkGgBck+fQKx1kGgA0TAGastfbx9FsvThafkP9XVT2sY8256DUML11u2LNOF3eqM7sA0Fr7WJLfX+HQr6uqm/buBzg8AWD+Xtm5XiV5alXt2nJAr2G4yqfXY/WpTnWu1alOb6ssAySuAsBGCQDz1zsAJIsQ8OSquqCq7rKG+lPYpgDQ6xyzuwKw9OIkqzzX/6DejQCHJwDM31+usfaZSf60qv6oqs5Y43k2YZsCQK8rALMMAK21TyX5nRUOvVFVndm7H+DQBID5e0OST6z5HHdN8uqq+t2quvOaz7UuIwaAa1TVXP8MWwaAmZvrXx4sLW9Ie/qGTnfvJOdX1Rur6iFVddUNnbeHa3Sqs01LAMclOaVTrd7+JKttFf2A5Z4OwJoJANvhSVlsH7spt8oidLynqh5XVadt8NyrukqnOr0+nW/qHL2+766WOx4+b4VDr5Xkbp3bAQ5BANgCrbULs3i+etNOTfKTSS6sqnNmvj7baxBu0xJAMtMAsGQZAGZMANgev5DFXutTOCGLndouqKpXV9WDquqEiXo5nBM71dmmJYCk3/fdXWvtVUn+YYVD71NVJ/fuB7giAWBLtNb+KsnPTd1HkjOSPCfJu6rq0VU1l2fRtykAjHIFIFntKsDJGePlVTApAWC7PDbJK6ZuYul6SX42i/sEnjGDXdxGXQKY7RWAJcsAMFMCwBZZ3lj1oCQfnrqXA1wlyfcmeWtVPbeqbj5RH9t0BWCIJYAkaa29LckbVzj0m6tqlvscwK4QALZMa+19WTyu95GpeznIcUkemOTNVfW8qvrqDZ/fUwDztcpVgH1JHtC7EeDzBIAttLy56o5J3jd1L4dwXJL7J3ljVT1+g3sJbNMVgJGWAJLk3CRtheMsA8AaCQBbqrX2N0m+Psnbp+7lMPYl+Ykkb6qqO2zgfKPeAzD7KwCttfck+fMVDj2rqr6idz/AggCwxVpr78oiBJw3dS9HcJMkf1ZVv7DmbWuP71RnExsu9TxHr+973Va9GdALgmBNBIAt11r7cGvt7CT3SvLuqfs5jEryo0meX1Unrekcl3aqs4lL6j0/tff6vtft+Uk+s8JxlgFgTQSAHdFae0mSr85i2+DPTtzO4dw3ycur6tprqN3r0v0mLqn3vC9iE0sWe9Za+0iSl65w6M2q6ja9+wEEgJ3SWru4tfbILC67PyXzHA5nJPn9NVwJ6PVJeBM3LY54BSCxJwDMigCwg1pr72yt/WCSGyb5pSQXT9zSwb4uyTOrqjrWdAVg/n43ySUrHHf2jF97DFvLH6od1lr7QGvtR5PcIMkjs9qGLOty/yxeNNRLr0/CmwgAQ14BaK19MsmLVjj0tCR36dwODE8AGEBr7SOttSe11m6d5NZZ3Ccwh90Ef6rjY17bFAB6XgHYmgCwZBkAZkIAGExr7Y3L+wROS3K/JL+fzTz6dignJvkfnWpZAtgOL8tq4fN+G9xUCoYgAAyqtfaZ1toLW2vfmsUSwU8leecErdy/qm7Xoc42XQEYcgkgSVprn83ikcBjdUoWj7oCnQgApLX2vtba45LcKMldk5yTzX6y/N4ONVwB2B7PWfE4ywDQkQDA5drCn7TWHpTFEsF/y2YGzLd3uMv7X7p0spnHAHueo9f3vUmvTPKuFY67Z1Vdo3czMCoBgENa3jj4M0luleQv1ny66ya5/R5r9LqpcZuWAD7VWlvlsbpJtdZaFleZjtWJSb6zczswLAGAI2qt/V0Wbx78wSQXrfFUe70PYJsCQK8rAHN4kmNVngaAiQkAXKnl0sBTktw8ycvXdJrr7fF4AWCLtNbenOQtKxx6x6r6st79wIgEAI5aa+19Se6d5PVrKD9SAOh1jq0NAEurXAWoJA/s3QiMSADgmLTWLk7yrek/fEYKAMNfAVg6J0lb4TjLANCBAMAxa619MMkvdy47lwBwfFVdvVOtwzm1U52tDgCttQuTXLDCobdM8jV9u4Hx7Ju6gf2q6tFJHr3HMj/UWntaj36mVlXfnaTHa1AvbK09sUOdg/1akv+axQYtPew1APxTly4WbpDkYx3rHez6ner0/J6n8pys9gTIj/duBEYzmwCQRS97vfw6p+9nr+6Z5AEd6rw6SfcA0Fq7uKrenOTrO5W8WlWd1Fpb6bn21tpFVfWZJCd06OX0JG/qUOdwet3EttVXAJaen8W7KY71z+4Xr6EXGIolAPbibZ3rXWePx3+wSxeLALBOvQJAr+93Mq21f0ryR1P3ASPatQDwRRMff6DPdqy1Fyetsfbfdq73qT0e/9ddulhjAKiqk5P02s2u1/c7tVX3BAD2YE4BoMeWs3v9i7XnNqN73TSn1xa8e/1UfSS9rwDs9ZL2G7t0sbgHYF16ffr/RJK/71Rrai9K8smpm4DRzCkAXNyhxl7v3u559/debyL7aJcuklM77LN/OD0DwMeWb4rbizd06ST5153qrLP2m5Zb6m695aOlvzd1HzAaAaDv8Qf6+B6P/0iXLpLjk1yrU62D9XxmvscNbb2uANyoqk7rVOtgd+xUp9f3OheWAWDDdi0A7PUSfq8A8OnW2l4v4fe6ApCsbxngqzvW6hEA/iH93lfQa1Cvq26vqx1z8dL0C73AUdi1ALDXAd7rHoAez5D3/Mvwuh1rHahnANjzM+3LS+K9Ht/rHgCq6tpJbtqp3E5dAWitXZrk/0zdB4xkTgGgxyfAG+7x+C/v0EOy98v/Sd8rAGd0rHWgngHgvZ3q9PpkfLeqqk619rt7pzqfSfI3nWrNiWUA2KA5BYC/61DjtKq62SoHLm+Uu3OHHpLkXR1qvKNDjf3u1bHWgXpux/ryTnVe06nOjZN8W6da+/1wpzpv6rDENEevSL8gCFyJ2QSA1tpFSd7fodRdVzzu1kmu2eH8yWr7m19Ba+3t6bfRy22r6iadaiVJqup2WbweuIfLkvxJp1r/N32Wk5LkJzrVSVXdPYvfYz08u1OdWVku4Zw7dR8witkEgKUeG8t804rHrRocDuWVneq8olOd47LYbrWL5aXxX+pVL8kbWmv/3KPQ8pGyc3rUSnJmVd2pU61eYeLTSZ7VqdYcWQaADZlbAOjxXPldqmqV163eo8O5k8XrTV/dqVavAJAk31JVP9Cp1hOTfEOnWknyso61kqTnC6GeWVVfupcCyxdd3blPO3lha21n75Zvrb0h/XeYBA5hbgHgdR1qXC3J447lgKr6ziS9Pum9rbXW601yf9apzn6/UVUPX/Xgqjqlqp6S5BEde0o67wXfWntNkjd3KneDJC+rqn+1ysHL0PWznXpJ+oabuXIVADZgbgHgxUk+16HOD1fVDx3N/7Gq7prkqR3OuV+vy//J4k7vHjcU7ldJfrWqXnws9wRU1XFV9ZAkb0/y/R37SRbf3192rpn0HZQ3T3J+VX3z0R5QVadW1eOT/HrHPv4hyfkd682VAAAbMKsA0Fr7cJK/6FDquCRPrqqXVtV9D14SWA60O1bV05L8YZKVPt0dxjN7FVreFPUrveod4FuTvKWqfreqvr+qbnDwdsHLAXanqvqPWdxZ//SsZ0OhRy2fAe/t2en3PoUkuWWSP6yqV1XVd1XVzarq8hct1cL1quqsqvrlJBdmse7f88/Y03dl+98jaa39ffotowGHcazv4N6E30m/y/F3X361qvpwFnsNXC3JtbOe7/21rbUeAeZAT0vy0+n3hMJ+JyS59/IrSS6rqo9m8TO6etb7EqH9Xpd+N+xdQWvtI1X17CTf17n07ZKct/+/VNWHsth98MuSrHLvydG6JMkz1lh/bp6bxc8aWJNZXQFYelEWj4X1VFnsh/9VSU7L+oJP90/rrbVPJvm13nUP4bgsQsZNs5nhnyQ/suZPtI9K3w2VDuU6Sb4y6x3+SfLY1lqvx0K3wXnpsxwIHMbsAkBr7V1JfmvqPlbw7qxvK9MnZ/EJcJf8Xmut902OV9Ba+8csQsC2e0uSJ0zdxCa11j6U5E+n7gN22ewCwNKj0mc73U16fIfX2R7S8hn5Xo/wzcFb0//S/OH8Zrb7xrlPJ3noun5vzZybAWGNZhkAlp/cfmbqPo7Bs1prT1nnCVprz85mlgLW7e1Jvqm1tueX/xyN1tplSe6XPltNT+EhrbVRb4h7YZJPTd0E7KpZBoClJ2c7XnjyqiQP29C5/nP6Pma4aX+f5Bs3vZbdWvtoFk8+9Hjh1CY9prU27Kfg5fbgL5m6D9hVsw0ArbXPZHEH//+bupcjeE+S79jUi1mWP5P7Z/E8+LZ5RxbD/31TnHz5aNmdsrhXYxv8VGvtsVM3MQPDBiBYt9kGgCRZDos7Z3HZeG7+KotL2Zv+NPv+JLfJ4nHJbfDZJL+Y5FattUmHb2vtrUnOTL9XBq/DZ5J8d2vtmHaz3GEvyfbdDwRbYdYBILl84N0589kf/LIkj09yVmttkqsTrbWPt9bum+S/ZDEw5up1SW7bWvux5eOMk2utfSDJHbK4n6L346Z79dYkd2yt7fLLfo7J8uraC6buA3bR7ANAcvlf2rdN8t8z7U1BFya5S2vtUcvL8ZNqrf1KFpe1XzN1Lwd5X5JHJjmztfbGqZs5WGvtktbaw7MIAm+dup8klyZ5TJJbt9ZeNXEvc2QZANZgKwJAsnjNa2vtJ5PcLMnzNnnqLN5Vf78kX9la6/mGvj1rrV3QWrtdkjOS/O/03f72WHw6i1+XeyS5QWvtSa21WW/k0lp7ZZJbJTk702w9+7Eslkdu3Fp77Jq2RN4F5yf5wNRNwK6Z41bAR7TcKOgBVfXEJP82ybckueEaTvXeJM9P8pTW2hzvQbiC1tprk3xPVf1Ikocm+Y4shtuJazztxUlen8XP6bnb+Jra5fP15yU5r6rOzOL31N2y2N1vHS7J4i2PL87i8dGL13SeY3VZ9r7W/okejRystXZZVT0r/V9ENYtlKZhKZfEJt7cHttbOXUPdQ1q+2e4eWYSBW2fxcp8TjqHEx7NYr37N/q/lvQdbrapOzCIEnJHFEsoZSW6S5PgVyn0iyZuyuPnxdct//t3yOfudU1U3SHLXLN4EeJ0k113+8zpZbJl8pKtnlyT50AFfH8wiUP55kgvmsHzE+lTVuUke0Lnsea21szvXZEtU1dlZw3tTtu4KwKEsP6G/PcmT9v+7qjolyalZ/GV9zSxCwaVZDPuLlv/8eJKLWmu7ts1ukmR5Sfm1y6/LVdXJSU7J4sVIpxzwn0/KYtAf+PPZ/zMa6vL08krT0w/1v1XV8Vm8W2J/KDgpyT9mOex39fcTsFt2IgAcynITkYuync/Mr9VyQF0S66orWd7b8MHlF8BW2pqbAAGAfgQAABiQAAAAAxIAAGBAAgAADEgAAIABCQAAMCABAAAGJAAAwIAEAAAYkAAAAAMSAABgQAIAAAxIAACAAQkAADAgAQAABiQAAMCABAAAGJAAAAADEgAAYEACAAAMSAAAgAEJAAAwIAEAAAYkAADAgAQAABiQAAAAAxIAAGBAAgAADGjfmuo+oqrus6baAHN21tQNwNFYVwA4K/4QAMBsWQIAgAEJAAAwIAEAAAYkAADAgAQAABiQAAAAAxIAAGBAAgAADEgAAIABCQAAMCABAAAGJAAAwIAEAAAYkAAAAAMSAABgQAIAAAxIAACAAQkAADAgAQAABrQvyXlTN7GDzkpyeuea705yQeeawHZ45dQNsHv2tdbOnrqJXVNV56Z/ALjArxUAvVgCAIABCQAAMCABAAAGJAAAwIAEAAAYkAAAAAMSAABgQAIAAAxIAACAAQkAADAgAQAABiQAAMCABAAAGJAAAAADEgAAYEACAAAMSAAAgAEJAAAwIAEAAAYkAADAgAQAABiQAAAAAxIAAGBAAgAADEgAAIABCQAAMCABAAAGJAAAwIAEAAAYkAAAAAMSAABgQAIAAAxIAACAAQkAADAgAQAABiQAAMCABAAAGJAAAAADEgAAYEACAAAMSAAAgAEJAAAwIAEAAAYkAADAgAQAABiQAAAAAxIAAGBAAgAADEgAAIABCQAAMCABAAAGJAAAwIAEAAAYkAAAAAMSAABgQAIAAAxIAACAAQkAADAgAQAABiQAAMCABAAAGJAAAAAD2jd1AwAcWVWdnuT2U/fBZM5aR1EBAGD+bp/knKmbYLdYAgCAAQkAADAgAQAABiQAAMCABAAAGJAAAAADEgAAYEACAAAMSAAAgAEJAAAwIAEAAAYkAADAgAQAABiQAAAAAxIAAGBAAgAADEgAAIABCQAAMCABAAAGJAAAwID2Td0AANNordXUPYysqo5P8swkD57g9I91BQAANmzq4d9ae4wAAAAbNIfhn7gHAAA2Zi7DPxEAAGAj5jT8EwEAANZubsM/EQAAYK3mOPwTAQAA1mauwz8RAABgLeY8/BMBAAC6m/vwTwQAAOhqG4Z/IgAAQDfbMvwTAQAAutim4Z8IAACwZ9s2/BMBAAD2ZBuHfyIAAMDKtnX4JwIAAKxkm4d/IgAAwDHb9uGfCAAAcEx2YfgnAgAAHLVdGf6JAAAAR2WXhn8iAADAldq14Z8IAABwRLs4/BMBAAAOa1eHfyIAAMAh7fLwTwQAAPgCuz78EwEAAK5ghOGfCAAAcLlRhn8iAABAkrGGfyIAAMBwwz8RAAAY3IjDPxEAABjYqMM/EQAAGNTIwz8RAAAY0OjDPxEAABiM4b8gAAAwDMP/8wQAAIZg+F+RAADAzjP8v5AAAMBOM/wPTQAAYGcZ/ocnAACwkwz/IxMAANg5hv+VEwAA2CmG/9ERAADYGYb/0RMAANgJhv+xEQAA2HqG/7ETAADYaob/agQAALaW4b86AQCArWT4740AAMDWMfz3TgAAYKsY/n0IAABsDcO/HwEAgK1g+PclAAAwe4Z/fwIAALNm+K+HAADAbBn+6yMAADBLhv96CQAAzI7hv34CAACzYvhvhgAAwGwY/psjAAAwC4b/ZgkAAEzO8N88AQCASRn+0xAAAJiM4T8dAQCASRj+0xIAANg4w396AgAAG2X4z4MAAMDGGP7zIQAAsBGG/7wIAACsneE/PwIAAGtl+M+TAADA2hj+8yUAALAWhv+8CQAAdGf4z58AAEBXhv92EAAA6Mbw3x4CAABdGP7bRQAAYM8M/+0jAACwJ4b/dhIAAFiZ4b+9BAAAVmL4bzcBAIBjZvhvPwEAgGNi+O8GAQCAo2b47w4BAICjL/vb3QAAAWZJREFUYvjvFgEAgCtl+O8eAQCAIzL8d5MAAMBhGf67SwAA4JAM/90mAADwBQz/3ScAAHAFhv8YBAAALmf4j0MAACCJ4T8aAQAAw39AAgDA4Az/MQkAAAMz/MclAAAMyvAfmwAAMC7Df2ACAMC4DP+BCQAAbIrhPyMCAACbYPjPjAAAwLoZ/jMkAACwTob/TAkAAKyL4T9jAgAA62D4z5wAAEBvhv8W2Dd1Axy106vq7KmbACZx1tQNHAPDf0sIANvjrGzXXwLAeAz/LWIJAIAeDP8tIwAAsFeG/xYSAADYC8N/SwkAAKzK8N9iAgAAqzD8t5wAAMCxMvx3gAAAwLEw/HeEAADA0TL8d4gAAMDRMPx3jAAAwJUx/HeQAADAkRj+O0oAAOBwDP8dJgAAcCiG/44TAAA4mOE/AAEAgAMZ/oMQAADYz/AfiAAAQGL4D0cAAMDwH5AAADA2w39QAgDAuAz/gf1/YmZjmyOXvPoAAAAASUVORK5CYII=;" vertex="1" parent="WIyWlLk6GJQsqaUBKTNV-1">
          <mxGeometry x="310" y="450" width="30" height="30" as="geometry" />
        </mxCell>
      </root>
    </mxGraphModel>
  </diagram>
</mxfile>
